<?xml version="1.0" encoding="UTF-8"?>
<svg xmlns="http://www.w3.org/2000/svg" xmlns:xlink="http://www.w3.org/1999/xlink" width="24px" height="24px" viewBox="0 0 24 23" version="1.1">
<g id="surface1">
<path style=" stroke:none;fill-rule:nonzero;fill:rgb(0%,0%,0%);fill-opacity:1;" d="M 0 11.46875 L 0 22.941406 L 23.96875 22.941406 L 23.96875 0 L 0 0 Z M 19.144531 5.316406 L 19.191406 6.257812 L 19.671875 6.257812 C 20.226562 6.257812 20.210938 6.347656 19.640625 6.433594 L 19.253906 6.480469 L 19.097656 17.652344 L 18.679688 17.695312 C 18.308594 17.742188 18.246094 17.816406 18.246094 18.1875 L 18.246094 18.621094 L 6.339844 18.621094 L 6.324219 19.023438 L 6.292969 19.441406 L 6.230469 19.023438 C 6.171875 18.636719 6.125 18.621094 5.320312 18.621094 L 4.484375 18.621094 L 4.484375 5.378906 L 4.917969 5.332031 C 5.242188 5.304688 5.335938 5.214844 5.351562 4.914062 C 5.367188 4.707031 5.382812 4.5 5.382812 4.425781 C 5.398438 4.363281 8.488281 4.335938 12.261719 4.351562 L 19.097656 4.394531 Z M 19.144531 5.316406 "/>
<path style=" stroke:none;fill-rule:nonzero;fill:rgb(0%,0%,0%);fill-opacity:1;" d="M 5.566406 4.902344 C 5.566406 5.289062 5.628906 5.347656 6.078125 5.40625 L 6.570312 5.46875 L 6.078125 5.480469 L 5.566406 5.511719 L 5.566406 7.539062 C 5.566406 8.832031 5.503906 9.519531 5.414062 9.460938 C 5.320312 9.398438 5.257812 8.566406 5.257812 7.433594 C 5.257812 5.617188 5.242188 5.511719 4.949219 5.511719 C 4.640625 5.511719 4.640625 5.617188 4.640625 11.976562 L 4.640625 18.425781 L 5.382812 18.410156 C 6 18.398438 6.109375 18.351562 6.15625 18.085938 C 6.1875 17.832031 6.09375 17.742188 5.738281 17.683594 C 5.257812 17.59375 5.257812 17.578125 5.257812 16.625 C 5.257812 16.089844 5.320312 15.613281 5.414062 15.566406 C 5.503906 15.507812 5.566406 15.835938 5.566406 16.445312 C 5.566406 17.324219 5.597656 17.429688 5.875 17.429688 C 6.15625 17.429688 6.1875 17.308594 6.230469 15.222656 L 6.277344 13.035156 L 6.308594 15.222656 L 6.339844 17.429688 L 18.09375 17.429688 L 18.0625 11.945312 L 18.015625 6.480469 L 15.308594 6.40625 L 12.601562 6.316406 L 15.339844 6.285156 L 18.078125 6.257812 L 18.140625 5.765625 L 18.199219 5.289062 L 18.214844 5.765625 C 18.246094 6.167969 18.308594 6.257812 18.601562 6.257812 C 18.929688 6.257812 18.957031 6.195312 18.929688 5.46875 C 18.898438 5.050781 18.882812 4.648438 18.882812 4.574219 C 18.867188 4.511719 15.882812 4.46875 12.214844 4.46875 L 5.566406 4.46875 Z M 14.691406 11.917969 C 14.691406 11.992188 14.582031 12.066406 14.457031 12.066406 C 14.195312 12.066406 14.210938 12.007812 14.164062 13.152344 C 14.148438 13.617188 14.179688 13.988281 14.257812 13.972656 C 14.320312 13.941406 14.722656 13.527344 15.15625 13.035156 C 15.742188 12.378906 15.882812 12.125 15.695312 12.097656 C 15.570312 12.066406 15.496094 11.976562 15.542969 11.902344 C 15.664062 11.722656 16.964844 11.722656 17.085938 11.917969 C 17.132812 11.992188 17.042969 12.066406 16.871094 12.066406 C 16.578125 12.066406 15.308594 13.300781 15.308594 13.585938 C 15.308594 13.839844 16.886719 15.953125 17.195312 16.101562 C 17.722656 16.371094 17.320312 16.535156 16.144531 16.535156 C 15.277344 16.535156 15 16.492188 15.046875 16.339844 C 15.078125 16.25 15.199219 16.175781 15.292969 16.191406 C 15.558594 16.25 15.511719 16.101562 14.984375 15.3125 C 14.503906 14.613281 14.242188 14.417969 14.210938 14.777344 C 14.164062 15.386719 14.289062 16.027344 14.472656 16.132812 C 14.953125 16.386719 14.644531 16.535156 13.609375 16.535156 C 12.742188 16.535156 12.527344 16.492188 12.527344 16.3125 C 12.527344 16.191406 12.632812 16.089844 12.757812 16.089844 C 12.957031 16.089844 12.988281 15.773438 12.988281 14.152344 C 12.988281 12.558594 12.941406 12.183594 12.757812 12.125 C 12.214844 11.917969 12.601562 11.769531 13.609375 11.769531 C 14.226562 11.769531 14.691406 11.828125 14.691406 11.917969 Z M 14.691406 11.917969 "/>
<path style=" stroke:none;fill-rule:nonzero;fill:rgb(0%,0%,0%);fill-opacity:1;" d="M 18.246094 11.933594 L 18.246094 17.429688 L 18.941406 17.429688 L 18.914062 11.960938 C 18.867188 6.585938 18.867188 6.480469 18.558594 6.464844 C 18.246094 6.449219 18.246094 6.523438 18.246094 11.933594 Z M 18.246094 11.933594 "/>
<path style=" stroke:none;fill-rule:nonzero;fill:rgb(0%,0%,0%);fill-opacity:1;" d="M 6.339844 18.070312 L 6.339844 18.472656 L 12.1875 18.441406 L 18.015625 18.398438 L 18.0625 18.054688 C 18.125 17.652344 18.804688 17.695312 11.875 17.667969 L 6.339844 17.652344 Z M 6.339844 18.070312 "/>
</g>
</svg>
