<!-- Generated by IcoMoon.io -->
<svg version="1.1" xmlns="http://www.w3.org/2000/svg" width="24" height="24" viewBox="0 0 24 24">
<title>picture</title>
<path d="M1.125 24h21.75c0.62 0 1.125-0.505 1.125-1.125v-21.75c0-0.62-0.505-1.125-1.125-1.125h-21.75c-0.62 0-1.125 0.505-1.125 1.125v21.75c0 0.62 0.505 1.125 1.125 1.125zM0.75 1.125c0-0.207 0.169-0.375 0.375-0.375h21.75c0.206 0 0.375 0.168 0.375 0.375v21.75c0 0.207-0.169 0.375-0.375 0.375h-21.75c-0.206 0-0.375-0.168-0.375-0.375v-21.75zM15.375 9.375c0.827 0 1.5-0.673 1.5-1.5s-0.673-1.5-1.5-1.5-1.5 0.673-1.5 1.5 0.673 1.5 1.5 1.5zM15.375 7.125c0.414 0 0.75 0.337 0.75 0.75s-0.336 0.75-0.75 0.75-0.75-0.337-0.75-0.75 0.336-0.75 0.75-0.75zM3.375 18.75h17.25c0.207 0 0.375-0.168 0.375-0.375v-15c0-0.207-0.168-0.375-0.375-0.375h-17.25c-0.207 0-0.375 0.168-0.375 0.375v15c0 0.207 0.168 0.375 0.375 0.375zM3.75 18v-4.228c0.017-0.012 0.035-0.019 0.050-0.034l3.837-3.837c0.195-0.195 0.534-0.194 0.729 0l5.641 5.641c0.073 0.073 0.169 0.11 0.265 0.11 0.093 0 0.186-0.034 0.259-0.104l2.899-2.754c0.098-0.097 0.227-0.152 0.364-0.152s0.266 0.054 0.353 0.14l2.101 2.289c0 0 0.001 0 0.001 0.001v2.928h-16.501zM20.25 3.75v10.214l-1.561-1.699c-0.238-0.239-0.556-0.371-0.893-0.371-0.001 0-0.001 0-0.001 0-0.338 0-0.656 0.132-0.889 0.364l-2.628 2.496-5.382-5.383c-0.479-0.479-1.312-0.478-1.79 0l-3.357 3.358v-8.978h16.5z"></path>
</svg>
