<!-- Generated by IcoMoon.io -->
<svg version="1.1" xmlns="http://www.w3.org/2000/svg" width="24" height="24" viewBox="0 0 24 24">
<title>px-with-circle</title>
<path d="M10.019 11.108c-0.191-0.143-0.39-0.26-0.596-0.352-0.209-0.094-0.415-0.14-0.623-0.14-0.383 0-0.685 0.145-0.908 0.433-0.226 0.29-0.337 0.616-0.337 0.974 0 0.392 0.115 0.715 0.344 0.966s0.546 0.377 0.949 0.377c0.208 0 0.414-0.042 0.623-0.125 0.208-0.082 0.404-0.185 0.589-0.311 0.186-0.125 0.361-0.266 0.524-0.425 0.164-0.157 0.311-0.314 0.442-0.467-0.131-0.139-0.284-0.295-0.458-0.464s-0.358-0.325-0.548-0.467zM15.152 10.616c-0.218 0-0.43 0.047-0.63 0.14-0.202 0.091-0.392 0.209-0.574 0.352-0.18 0.142-0.352 0.298-0.516 0.467s-0.313 0.325-0.442 0.467c0.142 0.164 0.294 0.326 0.458 0.482 0.164 0.16 0.337 0.3 0.526 0.426 0.184 0.125 0.377 0.226 0.58 0.302 0.202 0.077 0.419 0.115 0.647 0.115 0.404 0 0.714-0.131 0.932-0.394 0.22-0.263 0.326-0.583 0.326-0.966 0-0.382-0.119-0.71-0.352-0.982-0.234-0.274-0.553-0.41-0.956-0.41zM12 0.48c-6.362 0-11.52 5.158-11.52 11.52s5.158 11.52 11.52 11.52 11.52-5.158 11.52-11.52-5.158-11.52-11.52-11.52zM17.802 13.154c-0.13 0.371-0.316 0.696-0.556 0.973-0.24 0.28-0.538 0.497-0.892 0.655-0.355 0.158-0.75 0.236-1.187 0.236-0.338 0-0.655-0.052-0.949-0.155-0.295-0.104-0.571-0.24-0.827-0.41-0.257-0.169-0.499-0.365-0.73-0.588-0.228-0.226-0.446-0.456-0.655-0.696-0.228 0.24-0.452 0.472-0.671 0.696-0.22 0.223-0.45 0.42-0.697 0.588-0.245 0.17-0.512 0.306-0.802 0.41-0.288 0.103-0.613 0.155-0.974 0.155-0.448 0-0.845-0.078-1.195-0.236-0.349-0.158-0.65-0.371-0.9-0.638-0.251-0.269-0.442-0.587-0.574-0.958-0.128-0.371-0.194-0.769-0.194-1.194 0-0.426 0.062-0.821 0.188-1.187s0.31-0.682 0.548-0.95c0.24-0.269 0.534-0.479 0.884-0.638 0.348-0.157 0.74-0.236 1.178-0.236 0.36 0 0.69 0.054 0.99 0.164 0.3 0.108 0.577 0.253 0.834 0.433 0.258 0.179 0.498 0.386 0.722 0.622s0.444 0.482 0.662 0.745c0.209-0.251 0.425-0.497 0.647-0.736 0.226-0.241 0.464-0.451 0.722-0.63 0.256-0.18 0.534-0.325 0.834-0.433 0.3-0.11 0.625-0.164 0.972-0.164 0.438 0 0.83 0.074 1.181 0.229 0.349 0.152 0.643 0.361 0.883 0.629 0.24 0.269 0.425 0.58 0.556 0.941 0.132 0.361 0.197 0.752 0.197 1.178 0 0.427-0.065 0.826-0.198 1.195z"></path>
</svg>
