<!-- Generated by IcoMoon.io -->
<svg version="1.1" xmlns="http://www.w3.org/2000/svg" width="24" height="24" viewBox="0 0 24 24">
<title>google</title>
<path d="M2.387 6.707c0 1.793 0.599 3.086 1.778 3.846 0.967 0.624 2.088 0.718 2.671 0.718 0.142 0 0.256-0.007 0.335-0.012 0 0-0.185 1.205 0.708 2.395h-0.041c-1.547 0-6.592 0.323-6.592 4.472 0 4.219 4.633 4.434 5.563 4.434 0.073 0 0.116-0.002 0.116-0.002 0.010 0 0.076 0.002 0.19 0.002 0.596 0 2.138-0.074 3.57-0.772 1.858-0.9 2.8-2.471 2.8-4.662 0-2.117-1.435-3.377-2.483-4.298-0.64-0.563-1.193-1.048-1.193-1.519 0-0.48 0.404-0.841 0.914-1.298 0.827-0.738 1.607-1.79 1.607-3.78 0-1.748-0.227-2.923-1.625-3.668 0.145-0.074 0.661-0.128 0.916-0.164 0.757-0.103 1.865-0.221 1.865-0.839v-0.119h-5.519c-0.055 0.002-5.581 0.206-5.581 5.267zM11.296 17.522c0.106 1.687-1.338 2.932-3.506 3.089-2.202 0.162-4.014-0.829-4.12-2.515-0.052-0.811 0.305-1.603 1.002-2.236 0.707-0.64 1.678-1.036 2.734-1.114 0.125-0.007 0.248-0.014 0.372-0.014 2.039 0.001 3.419 1.199 3.518 2.79zM9.854 5.551c0.541 1.906-0.276 3.895-1.579 4.264-0.15 0.042-0.304 0.062-0.461 0.062-1.193 0-2.375-1.207-2.814-2.872-0.245-0.931-0.224-1.75 0.056-2.534 0.275-0.774 0.772-1.294 1.396-1.47 0.15-0.042 0.305-0.064 0.462-0.064 1.44 0 2.366 0.598 2.94 2.614zM19.2 9.6v-3.6h-2.4v3.6h-3.6v2.4h3.6v3.6h2.4v-3.6h3.6v-2.4h-3.6z"></path>
</svg>
