<!-- Generated by IcoMoon.io -->
<svg version="1.1" xmlns="http://www.w3.org/2000/svg" width="24" height="24" viewBox="0 0 24 24">
<title>pinterest</title>
<path d="M10.34 15.872c-0.631 3.305-1.4 6.473-3.682 8.128-0.703-4.994 1.033-8.744 1.841-12.726-1.376-2.316 0.166-6.974 3.066-5.826 3.57 1.411-3.091 8.606 1.38 9.506 4.669 0.937 6.575-8.1 3.679-11.039-4.182-4.246-12.175-0.1-11.191 5.978 0.239 1.486 1.774 1.936 0.613 3.986-2.677-0.593-3.476-2.705-3.373-5.52 0.166-4.608 4.139-7.832 8.125-8.28 5.041-0.565 9.773 1.852 10.427 6.593 0.736 5.353-2.275 11.152-7.667 10.734-1.462-0.114-2.074-0.839-3.218-1.535z"></path>
</svg>
